<svg width="124" height="48" viewBox="0 0 124 48" fill="none" xmlns="http://www.w3.org/2000/svg">
<g filter="url(#filter0_d_1_463)">
<path d="M118.883 27.5695C117.814 27.4501 116.783 27.8226 115.907 28.2665C114.339 29.0545 112.735 29.8075 111.1 30.5079C110.837 30.6217 111.207 30.4641 111.229 30.4554L110.949 30.5692L110.392 30.7968C109.946 30.9719 109.501 31.147 109.055 31.3134C108.236 31.6242 107.412 31.9263 106.583 32.1889L105.336 32.6267C105.287 32.6267 104.756 32.793 104.756 32.8106L104.952 32.7493L104.467 32.8981C103.623 33.152 102.777 33.3928 101.928 33.6204C101.077 33.8437 100.217 34.0582 99.3571 34.2508C99.166 34.3195 98.967 34.3651 98.7646 34.3865C98.7646 34.3865 99.415 34.2464 98.8582 34.3646L98.5597 34.4259C98.1142 34.5178 97.6954 34.601 97.2589 34.6842C96.3679 34.8549 95.4502 35.0125 94.5414 35.1482C94.1271 35.2139 93.7127 35.2708 93.294 35.3277L92.5456 35.424C93.0133 35.3627 92.3807 35.424 92.2248 35.459C90.3538 35.6604 88.4782 35.7844 86.5983 35.8311H85.3286C85.6583 35.8311 85.1415 35.8311 85.048 35.8311H84.206C83.2972 35.8311 82.3884 35.8019 81.4796 35.7436C79.6352 35.656 77.7939 35.5101 75.9555 35.3058C68.8276 34.5047 61.6686 32.8193 54.6521 30.9544C47.5243 29.0545 40.4276 26.9489 33.175 25.4736C25.6953 23.9502 18.0284 23.0747 10.3971 23.5956C10.0291 23.6199 9.88426 23.6484 9.51653 23.6805C9.36619 23.7704 9.29102 24.0917 9.29102 24.6445C9.29102 25.1972 9.38049 25.55 9.55943 25.7028C10.1441 25.6736 10.5062 25.6526 11.0921 25.64H11.836C11.5153 25.64 12.0321 25.64 12.1256 25.64C12.6201 25.64 13.1146 25.64 13.6091 25.64C14.5624 25.6604 15.5128 25.7027 16.4602 25.7669C20.1405 26.0152 23.8009 26.4933 27.4193 27.1984C34.7966 28.6036 41.9913 30.7005 49.2483 32.6617C56.5054 34.6229 63.8292 36.374 71.3046 37.3239C79.0229 38.3481 86.8528 38.2478 94.5414 37.0262C102.14 35.7695 109.526 33.4891 116.491 30.2496C117.306 29.8688 118.117 29.4704 118.919 29.0633C118.943 29.0509 119.122 29.0227 119.09 28.315C119.064 27.726 118.883 27.5695 118.883 27.5695Z" fill="#7DC7FF"/>
<path d="M9.52597 28.2146C19.307 27.6543 28.7615 29.5029 38.1851 32.0812C43.4604 33.5259 48.6776 35.1739 53.9261 36.6849C56.5704 37.4537 59.2192 38.1915 61.8858 38.894C64.6396 39.6461 67.434 40.2435 70.2558 40.6833C76.5477 41.5404 82.795 42.6141 89.1405 41.567C89.4036 41.5228 89.8272 41.3902 89.854 41.0633C89.8807 40.7363 89.5151 40.6215 89.2654 40.6701C83.5932 41.6244 77.9969 40.8468 72.3694 40.0427C70.9023 39.8306 69.4442 39.6362 67.9949 39.3225C66.5457 39.0089 65.2079 38.6996 63.8211 38.355C61.1456 37.6967 58.4701 36.9721 55.8347 36.2078C45.4403 33.2034 35.144 29.6645 24.3928 28.0519C19.3975 27.2638 14.5562 27.0218 9.51369 27.3284C9.51369 27.3284 9.28588 27.3845 9.29117 27.7665C9.29647 28.1485 9.52597 28.2146 9.52597 28.2146Z" fill="white"/>
<path d="M11.2034 8.65722C12.3941 12.2608 13.9212 15.7412 15.7639 19.0512C16.274 19.9298 18.3553 19.1029 18.7124 18.4206C21.6897 12.7226 25.3738 7.43369 29.6749 2.68236C30.1443 2.16551 29.2719 1.99494 28.9302 2.00011C28.2112 2.0024 27.5186 2.27498 26.9866 2.76506C22.5841 7.62932 18.8127 13.0432 15.7639 18.8755L18.7124 18.2501C16.8754 14.9386 15.3518 11.4584 14.1621 7.85609C13.8764 6.98777 10.9381 7.85609 11.2085 8.65722H11.2034Z" fill="#7DC7FF"/>
<path d="M4.03104 8.68311C5.48926 12.3546 7.25566 15.8925 9.31082 19.258C9.44855 19.4802 9.90766 19.5526 10.1219 19.5681C10.5196 19.589 10.9168 19.5202 11.285 19.3665C11.7951 19.1443 12.4073 18.6584 12.0451 18.0692C10.0766 14.8336 8.3869 11.4322 6.99486 7.90266C6.7449 7.2721 5.83177 7.33412 5.30125 7.47884C4.90335 7.58738 3.77088 8.08356 4.04124 8.70896L4.03104 8.68311Z" fill="white"/>
<path fill-rule="evenodd" clip-rule="evenodd" d="M27.3848 19.8233C27.3947 19.7629 27.4096 19.7025 27.4295 19.6421L27.4891 19.4609L28.0106 18.238H33.9709L34.5073 19.476C34.5272 19.5264 34.547 19.5792 34.5669 19.6346C34.5868 19.6899 34.6066 19.7528 34.6265 19.8233H37.6662C37.6464 19.7427 37.624 19.6673 37.5992 19.5968C37.5744 19.5264 37.5421 19.4509 37.5023 19.3703L33.8666 11.2782C33.5785 10.6441 33.1985 10.171 32.7267 9.85901C32.2548 9.547 31.6662 9.39099 30.9609 9.39099C30.2358 9.39099 29.6397 9.547 29.1728 9.85901C28.706 10.171 28.3285 10.6441 28.0404 11.2782L24.4344 19.3703C24.3947 19.4509 24.3624 19.5264 24.3376 19.5968C24.3127 19.6673 24.2904 19.7427 24.2705 19.8233H27.3848ZM32.9873 15.9886H28.9939L30.5287 12.335C30.5784 12.2142 30.6429 12.1312 30.7224 12.0859C30.8019 12.0406 30.8863 12.018 30.9757 12.018C31.0751 12.018 31.1645 12.0431 31.2439 12.0934C31.3234 12.1438 31.388 12.2243 31.4376 12.335L32.9873 15.9886ZM41.4511 15.3092V19.8233H38.7243V9.61749H41.4511V13.7995L46.0405 10.0402C46.1995 9.90937 46.3385 9.76846 46.4577 9.61749H50.2276C50.1978 9.66781 50.1581 9.71562 50.1084 9.76092C50.0588 9.80621 50.0091 9.84898 49.9594 9.88924L44.4163 14.2373C44.3567 14.2876 44.3269 14.343 44.3269 14.4034C44.3269 14.4637 44.3567 14.5191 44.4163 14.5694L50.3617 19.4459C50.4313 19.5063 50.4983 19.5666 50.5629 19.627C50.6275 19.6874 50.6895 19.7528 50.7492 19.8233H46.726C46.6266 19.7025 46.4776 19.5616 46.2789 19.4006L41.4511 15.3092ZM54.3551 19.8233C54.365 19.7629 54.3799 19.7025 54.3998 19.6421L54.4594 19.461L54.9809 18.2381H60.9412L61.4776 19.476C61.4975 19.5264 61.5174 19.5792 61.5372 19.6346C61.5571 19.6899 61.577 19.7528 61.5968 19.8233H64.6366C64.6167 19.7428 64.5944 19.6673 64.5695 19.5968C64.5447 19.5264 64.5124 19.4509 64.4727 19.3704L60.8369 11.2782C60.5488 10.6441 60.1689 10.171 59.697 9.85903C59.2252 9.54702 58.6366 9.39101 57.9313 9.39101C57.2061 9.39101 56.6101 9.54702 56.1432 9.85903C55.6763 10.171 55.2988 10.6441 55.0107 11.2782L51.4048 19.3704C51.365 19.4509 51.3327 19.5264 51.3079 19.5968C51.2831 19.6673 51.2607 19.7428 51.2409 19.8233H54.3551ZM55.9644 15.9886H59.9578L58.4081 12.335C58.3584 12.2243 58.2939 12.1438 58.2144 12.0934C58.1349 12.0431 58.0455 12.018 57.9462 12.018C57.8568 12.018 57.7723 12.0406 57.6929 12.0859C57.6134 12.1312 57.5488 12.2142 57.4992 12.335L55.9644 15.9886ZM78.3899 19.8233V12.3199H82.8005V9.61749H71.2524V12.3199H75.6779V19.8233H78.3899ZM94.4377 17.2115V19.8233H85.2588C84.3151 19.8233 83.8433 19.3503 83.8433 18.4042V10.9914C83.8433 10.0754 84.3201 9.61749 85.2737 9.61749H94.4377V12.3199H86.7787C86.6198 12.3199 86.5403 12.4055 86.5403 12.5766V13.7391H94.393V15.7017H86.5403V16.9397C86.5403 17.1209 86.6198 17.2115 86.7787 17.2115H94.4377ZM106.105 19.8233V17.136H100.83C100.353 17.136 99.9511 17.0655 99.6233 16.9246C99.2955 16.7837 99.0223 16.5925 98.8038 16.3509C98.6051 16.1395 98.4511 15.8955 98.3419 15.6187C98.2326 15.3419 98.178 15.0475 98.178 14.7355C98.178 14.3933 98.245 14.0712 98.3791 13.7693C98.5132 13.4673 98.6945 13.2056 98.923 12.9842C99.1415 12.7829 99.3998 12.6219 99.6978 12.5011C99.9958 12.3803 100.373 12.3199 100.83 12.3199H106.105V9.61749H100.83C100.016 9.61749 99.303 9.73575 98.692 9.97228C98.0811 10.2088 97.5521 10.5384 97.1051 10.9612C96.5985 11.4342 96.2011 11.9928 95.9131 12.637C95.625 13.2811 95.4809 13.9756 95.4809 14.7204C95.4809 15.3947 95.5952 16.0238 95.8237 16.6076C96.0521 17.1913 96.37 17.7097 96.7773 18.1626C97.2442 18.6759 97.8104 19.081 98.476 19.3779C99.1415 19.6748 99.9263 19.8233 100.83 19.8233H106.105ZM110.099 15.8829V19.8233H107.387V9.61749H110.099V13.3163H116.104V9.61749H118.815V19.8233H116.104V15.8829H110.099Z" fill="white"/>
<path fill-rule="evenodd" clip-rule="evenodd" d="M55.1331 27.3907V26.0816H57.5878V25.6122H55.1331V24.6823H57.766V24.2129H54.5405V27.3907H55.1331ZM58.6792 27.3907V25.9733H60.3321L61.0671 27.3907H61.6998L60.9602 25.9643C61.2394 25.9372 61.4384 25.8552 61.5572 25.7183C61.676 25.5813 61.7354 25.4106 61.7354 25.2059V24.9802C61.7354 24.8659 61.7176 24.7621 61.6819 24.6688C61.6463 24.5755 61.5891 24.495 61.5104 24.4273C61.4317 24.3596 61.33 24.3069 61.2053 24.2693C61.0805 24.2317 60.929 24.2129 60.7508 24.2129H58.0867V27.3907H58.6792ZM58.6796 25.5039H60.7512C61.0125 25.5039 61.1432 25.4061 61.1432 25.2105V24.9757C61.1432 24.7801 61.0125 24.6823 60.7512 24.6823H58.6796V25.5039ZM65.4378 27.3907V26.9212H62.8048V25.9462H65.3041V25.4768H62.8048V24.6823H65.4378V24.2129H62.2123V27.3907H65.4378ZM66.5558 24.2129V27.3907H65.9632V24.2129H66.5558ZM69.6389 27.3907C70.3844 27.3907 70.7571 27.165 70.7571 26.7136V25.6573H70.1646V26.7136C70.1646 26.852 69.9894 26.9212 69.6389 26.9212H68.2534C67.9029 26.9212 67.7277 26.849 67.7277 26.7045V24.899C67.7277 24.7546 67.9029 24.6823 68.2534 24.6823H70.7081V24.2129H68.2534C67.5079 24.2129 67.1351 24.4416 67.1351 24.899V26.7045C67.1351 27.162 67.5079 27.3907 68.2534 27.3907H69.6389ZM71.8975 25.9462V27.3907H71.305V24.2129H71.8975V25.4768H74.4637V24.2129H75.0562V27.3907H74.4637V25.9462H71.8975ZM77.6846 27.3907V24.6823H79.284V24.2129H75.4481V24.6823H77.0921V27.3907H77.6846ZM79.7431 26.8038V27.3906H79.0436V26.8038H79.7431ZM83.1555 27.3907V26.0816H85.6102V25.6122H83.1555V24.6823H85.7884V24.2129H82.563V27.3907H83.1555ZM89.5975 27.3342C89.4728 27.3719 89.3213 27.3907 89.1431 27.3907H87.0715C86.8933 27.3907 86.7418 27.3719 86.6171 27.3342C86.4923 27.2966 86.3906 27.244 86.3119 27.1762C86.2332 27.1085 86.176 27.028 86.1404 26.9348C86.1048 26.8415 86.0869 26.7377 86.0869 26.6233V24.9802C86.0869 24.8659 86.1048 24.7621 86.1404 24.6688C86.176 24.5755 86.2332 24.495 86.3119 24.4273C86.3906 24.3596 86.4923 24.3069 86.6171 24.2693C86.7418 24.2317 86.8933 24.2129 87.0715 24.2129H89.1431C89.3213 24.2129 89.4728 24.2317 89.5975 24.2693C89.7223 24.3069 89.824 24.3596 89.9027 24.4273C89.9814 24.495 90.0386 24.5755 90.0742 24.6688C90.1099 24.7621 90.1277 24.8659 90.1277 24.9802V26.6233C90.1277 26.7377 90.1099 26.8415 90.0742 26.9348C90.0386 27.028 89.9814 27.1085 89.9027 27.1762C89.824 27.244 89.7223 27.2966 89.5975 27.3342ZM89.143 26.9212H87.0714C86.81 26.9212 86.6793 26.8234 86.6793 26.6278V24.9757C86.6793 24.7801 86.81 24.6823 87.0714 24.6823H89.143C89.4044 24.6823 89.535 24.7801 89.535 24.9757V26.6278C89.535 26.8234 89.4044 26.9212 89.143 26.9212ZM91.277 25.9733V27.3907H90.6845V24.2129H93.3486C93.5269 24.2129 93.6783 24.2317 93.8031 24.2693C93.9278 24.3069 94.0295 24.3596 94.1082 24.4273C94.1869 24.495 94.2441 24.5755 94.2798 24.6688C94.3154 24.7621 94.3332 24.8659 94.3332 24.9802V25.2059C94.3332 25.4106 94.2738 25.5813 94.155 25.7183C94.0362 25.8552 93.8372 25.9372 93.558 25.9643L94.2976 27.3907H93.665L92.9299 25.9733H91.277ZM93.349 25.5039H91.2774V24.6823H93.349C93.6103 24.6823 93.741 24.7801 93.741 24.9757V25.2105C93.741 25.4061 93.6103 25.5039 93.349 25.5039ZM97.4028 24.9532L96.2935 27.3907H95.8614L94.4179 24.2129H94.9882L96.0797 26.6504L97.1801 24.2129H97.6211L98.7082 26.6504L99.8086 24.2129H100.383L98.9354 27.3907H98.4899L97.4028 24.9532ZM100.272 27.3907L101.916 24.8313L103.533 27.3907H104.201L102.13 24.2129H101.698L99.6125 27.3907H100.272ZM105.084 25.9733V27.3907H104.491V24.2129H107.155C107.333 24.2129 107.485 24.2317 107.61 24.2693C107.734 24.3069 107.836 24.3596 107.915 24.4273C107.994 24.495 108.051 24.5755 108.086 24.6688C108.122 24.7621 108.14 24.8659 108.14 24.9802V25.2059C108.14 25.4106 108.08 25.5813 107.962 25.7183C107.843 25.8552 107.644 25.9372 107.365 25.9643L108.104 27.3907H107.472L106.736 25.9733H105.084ZM107.155 25.5039H105.083V24.6823H107.155C107.416 24.6823 107.547 24.7801 107.547 24.9757V25.2105C107.547 25.4061 107.416 25.5039 107.155 25.5039ZM112.047 27.332C111.898 27.3711 111.712 27.3907 111.49 27.3907H108.616V24.2129H111.49C111.712 24.2129 111.898 24.2325 112.047 24.2716C112.195 24.3107 112.314 24.3694 112.403 24.4476C112.492 24.5259 112.555 24.6237 112.592 24.741C112.629 24.8584 112.648 24.9953 112.648 25.1518V26.4834C112.648 26.6338 112.629 26.7655 112.592 26.8783C112.555 26.9912 112.492 27.0852 112.403 27.1605C112.314 27.2357 112.195 27.2929 112.047 27.332ZM111.49 26.9212H109.209V24.6823H111.49C111.6 24.6823 111.691 24.6899 111.764 24.7049C111.837 24.72 111.895 24.7455 111.938 24.7816C111.981 24.8178 112.011 24.8659 112.029 24.9261C112.047 24.9863 112.056 25.0615 112.056 25.1518V26.4789C112.056 26.5631 112.047 26.6338 112.029 26.691C112.011 26.7482 111.981 26.7933 111.938 26.8264C111.895 26.8595 111.837 26.8836 111.764 26.8986C111.691 26.9137 111.6 26.9212 111.49 26.9212ZM113.797 26.8038V27.3906H113.098V26.8038H113.797Z" fill="black"/>
<path fill-rule="evenodd" clip-rule="evenodd" d="M55.1331 27.3907V26.0816H57.5878V25.6122H55.1331V24.6823H57.766V24.2129H54.5405V27.3907H55.1331ZM58.6792 27.3907V25.9733H60.3321L61.0671 27.3907H61.6998L60.9602 25.9643C61.2394 25.9372 61.4384 25.8552 61.5572 25.7183C61.676 25.5813 61.7354 25.4106 61.7354 25.2059V24.9802C61.7354 24.8659 61.7176 24.7621 61.6819 24.6688C61.6463 24.5755 61.5891 24.495 61.5104 24.4273C61.4317 24.3596 61.33 24.3069 61.2053 24.2693C61.0805 24.2317 60.929 24.2129 60.7508 24.2129H58.0867V27.3907H58.6792ZM58.6796 25.5039H60.7512C61.0125 25.5039 61.1432 25.4061 61.1432 25.2105V24.9757C61.1432 24.7801 61.0125 24.6823 60.7512 24.6823H58.6796V25.5039ZM65.4378 27.3907V26.9212H62.8048V25.9462H65.3041V25.4768H62.8048V24.6823H65.4378V24.2129H62.2123V27.3907H65.4378ZM66.5558 24.2129V27.3907H65.9632V24.2129H66.5558ZM69.6389 27.3907C70.3844 27.3907 70.7571 27.165 70.7571 26.7136V25.6573H70.1646V26.7136C70.1646 26.852 69.9894 26.9212 69.6389 26.9212H68.2534C67.9029 26.9212 67.7277 26.849 67.7277 26.7045V24.899C67.7277 24.7546 67.9029 24.6823 68.2534 24.6823H70.7081V24.2129H68.2534C67.5079 24.2129 67.1351 24.4416 67.1351 24.899V26.7045C67.1351 27.162 67.5079 27.3907 68.2534 27.3907H69.6389ZM71.8975 25.9462V27.3907H71.305V24.2129H71.8975V25.4768H74.4637V24.2129H75.0562V27.3907H74.4637V25.9462H71.8975ZM77.6846 27.3907V24.6823H79.284V24.2129H75.4481V24.6823H77.0921V27.3907H77.6846ZM79.7431 26.8038V27.3906H79.0436V26.8038H79.7431ZM83.1555 27.3907V26.0816H85.6102V25.6122H83.1555V24.6823H85.7884V24.2129H82.563V27.3907H83.1555ZM89.5975 27.3342C89.4728 27.3719 89.3213 27.3907 89.1431 27.3907H87.0715C86.8933 27.3907 86.7418 27.3719 86.6171 27.3342C86.4923 27.2966 86.3906 27.244 86.3119 27.1762C86.2332 27.1085 86.176 27.028 86.1404 26.9348C86.1048 26.8415 86.0869 26.7377 86.0869 26.6233V24.9802C86.0869 24.8659 86.1048 24.7621 86.1404 24.6688C86.176 24.5755 86.2332 24.495 86.3119 24.4273C86.3906 24.3596 86.4923 24.3069 86.6171 24.2693C86.7418 24.2317 86.8933 24.2129 87.0715 24.2129H89.1431C89.3213 24.2129 89.4728 24.2317 89.5975 24.2693C89.7223 24.3069 89.824 24.3596 89.9027 24.4273C89.9814 24.495 90.0386 24.5755 90.0742 24.6688C90.1099 24.7621 90.1277 24.8659 90.1277 24.9802V26.6233C90.1277 26.7377 90.1099 26.8415 90.0742 26.9348C90.0386 27.028 89.9814 27.1085 89.9027 27.1762C89.824 27.244 89.7223 27.2966 89.5975 27.3342ZM89.143 26.9212H87.0714C86.81 26.9212 86.6793 26.8234 86.6793 26.6278V24.9757C86.6793 24.7801 86.81 24.6823 87.0714 24.6823H89.143C89.4044 24.6823 89.535 24.7801 89.535 24.9757V26.6278C89.535 26.8234 89.4044 26.9212 89.143 26.9212ZM91.277 25.9733V27.3907H90.6845V24.2129H93.3486C93.5269 24.2129 93.6783 24.2317 93.8031 24.2693C93.9278 24.3069 94.0295 24.3596 94.1082 24.4273C94.1869 24.495 94.2441 24.5755 94.2798 24.6688C94.3154 24.7621 94.3332 24.8659 94.3332 24.9802V25.2059C94.3332 25.4106 94.2738 25.5813 94.155 25.7183C94.0362 25.8552 93.8372 25.9372 93.558 25.9643L94.2976 27.3907H93.665L92.9299 25.9733H91.277ZM93.349 25.5039H91.2774V24.6823H93.349C93.6103 24.6823 93.741 24.7801 93.741 24.9757V25.2105C93.741 25.4061 93.6103 25.5039 93.349 25.5039ZM97.4028 24.9532L96.2935 27.3907H95.8614L94.4179 24.2129H94.9882L96.0797 26.6504L97.1801 24.2129H97.6211L98.7082 26.6504L99.8086 24.2129H100.383L98.9354 27.3907H98.4899L97.4028 24.9532ZM100.272 27.3907L101.916 24.8313L103.533 27.3907H104.201L102.13 24.2129H101.698L99.6125 27.3907H100.272ZM105.084 25.9733V27.3907H104.491V24.2129H107.155C107.333 24.2129 107.485 24.2317 107.61 24.2693C107.734 24.3069 107.836 24.3596 107.915 24.4273C107.994 24.495 108.051 24.5755 108.086 24.6688C108.122 24.7621 108.14 24.8659 108.14 24.9802V25.2059C108.14 25.4106 108.08 25.5813 107.962 25.7183C107.843 25.8552 107.644 25.9372 107.365 25.9643L108.104 27.3907H107.472L106.736 25.9733H105.084ZM107.155 25.5039H105.083V24.6823H107.155C107.416 24.6823 107.547 24.7801 107.547 24.9757V25.2105C107.547 25.4061 107.416 25.5039 107.155 25.5039ZM112.047 27.332C111.898 27.3711 111.712 27.3907 111.49 27.3907H108.616V24.2129H111.49C111.712 24.2129 111.898 24.2325 112.047 24.2716C112.195 24.3107 112.314 24.3694 112.403 24.4476C112.492 24.5259 112.555 24.6237 112.592 24.741C112.629 24.8584 112.648 24.9953 112.648 25.1518V26.4834C112.648 26.6338 112.629 26.7655 112.592 26.8783C112.555 26.9912 112.492 27.0852 112.403 27.1605C112.314 27.2357 112.195 27.2929 112.047 27.332ZM111.49 26.9212H109.209V24.6823H111.49C111.6 24.6823 111.691 24.6899 111.764 24.7049C111.837 24.72 111.895 24.7455 111.938 24.7816C111.981 24.8178 112.011 24.8659 112.029 24.9261C112.047 24.9863 112.056 25.0615 112.056 25.1518V26.4789C112.056 26.5631 112.047 26.6338 112.029 26.691C112.011 26.7482 111.981 26.7933 111.938 26.8264C111.895 26.8595 111.837 26.8836 111.764 26.8986C111.691 26.9137 111.6 26.9212 111.49 26.9212ZM113.797 26.8038V27.3906H113.098V26.8038H113.797Z" fill="#DBDBDB"/>
</g>
<defs>
<filter id="filter0_d_1_463" x="0" y="0" width="123.094" height="48" filterUnits="userSpaceOnUse" color-interpolation-filters="sRGB">
<feFlood flood-opacity="0" result="BackgroundImageFix"/>
<feColorMatrix in="SourceAlpha" type="matrix" values="0 0 0 0 0 0 0 0 0 0 0 0 0 0 0 0 0 0 127 0" result="hardAlpha"/>
<feOffset dy="2"/>
<feGaussianBlur stdDeviation="2"/>
<feColorMatrix type="matrix" values="0 0 0 0 0 0 0 0 0 0 0 0 0 0 0 0 0 0 0.250546 0"/>
<feBlend mode="normal" in2="BackgroundImageFix" result="effect1_dropShadow_1_463"/>
<feBlend mode="normal" in="SourceGraphic" in2="effect1_dropShadow_1_463" result="shape"/>
</filter>
</defs>
</svg>
