<svg xmlns="http://www.w3.org/2000/svg" xmlns:xlink="http://www.w3.org/1999/xlink" width="297" height="102" viewBox="0 0 297 102">
    <defs>
        <path id="2gnje5ctla" d="M128.054 63.536v-3.235h6.148v-1.16h-6.148v-2.299h6.594v-1.16h-8.078v7.854h1.484zm8.881 0v-3.503h4.14l1.84 3.503h1.585l-1.852-3.525c.699-.067 1.197-.27 1.495-.608.297-.339.446-.76.446-1.267v-.558c0-.282-.045-.539-.134-.77-.09-.23-.232-.429-.43-.596-.197-.168-.451-.298-.764-.39-.312-.094-.692-.14-1.138-.14h-6.672v7.854h1.484zm5.188-4.663h-5.188v-2.03h5.188c.655 0 .982.24.982.724v.58c0 .484-.327.726-.982.726zm11.737 4.663v-1.16h-6.593v-2.41h6.259v-1.16h-6.26v-1.964h6.594v-1.16h-8.077v7.854h8.077zm2.8 0v-7.854h-1.483v7.854h1.484zm7.721 0c1.867 0 2.8-.558 2.8-1.673v-2.611h-1.483v2.61c0 .343-.439.514-1.317.514h-3.47c-.877 0-1.316-.179-1.316-.536v-4.462c0-.357.439-.536 1.317-.536h6.147v-1.16h-6.147c-1.867 0-2.8.565-2.8 1.696v4.462c0 1.131.933 1.696 2.8 1.696h3.47zm5.657 0v-3.57h6.426v3.57h1.484v-7.854h-1.484v3.124h-6.426v-3.124h-1.484v7.854h1.484zm14.493 0v-6.694h4.005v-1.16h-9.606v1.16h4.117v6.694h1.484zm5.154 0v-1.45h-1.751v1.45h1.751zm8.547 0v-3.235h6.147v-1.16h-6.147v-2.299h6.593v-1.16h-8.077v7.854h1.484zm14.995 0c.446 0 .825-.046 1.138-.14.312-.092.567-.222.764-.39.197-.167.34-.366.43-.597.089-.23.133-.487.133-.77v-4.06c0-.283-.044-.54-.134-.77-.089-.23-.232-.43-.43-.597-.196-.168-.45-.298-.763-.39-.313-.094-.692-.14-1.138-.14h-5.188c-.447 0-.826.046-1.138.14-.313.092-.567.222-.765.39-.197.167-.34.366-.43.597-.088.23-.133.487-.133.77v4.06c0 .283.045.54.134.77.09.231.232.43.43.597.197.168.451.298.764.39.312.094.691.14 1.138.14h5.188zm0-1.16h-5.188c-.655 0-.982-.242-.982-.725v-4.084c0-.483.327-.725.982-.725h5.188c.654 0 .981.242.981.725v4.084c0 .483-.327.725-.981.725zm5.344 1.16v-3.503h4.14l1.84 3.503h1.584l-1.852-3.525c.7-.067 1.198-.27 1.495-.608.298-.339.447-.76.447-1.267v-.558c0-.282-.045-.539-.134-.77-.09-.23-.233-.429-.43-.596-.197-.168-.452-.298-.764-.39-.313-.094-.692-.14-1.138-.14h-6.672v7.854h1.484zm5.188-4.663h-5.188v-2.03h5.188c.654 0 .982.24.982.724v.58c0 .484-.328.726-.982.726zm7.375 4.663l2.778-6.024 2.722 6.024h1.116l3.626-7.854h-1.44l-2.755 6.025-2.723-6.025h-1.104l-2.756 6.025-2.733-6.025h-1.428l3.614 7.854h1.083zm9.963 0l4.117-6.326 4.05 6.326h1.673l-5.188-7.854h-1.082l-5.221 7.854h1.65zm12.05 0v-3.503h4.139l1.84 3.503h1.585l-1.852-3.525c.699-.067 1.197-.27 1.495-.608.297-.339.446-.76.446-1.267v-.558c0-.282-.045-.539-.134-.77-.09-.23-.232-.429-.43-.596-.196-.168-.451-.298-.764-.39-.312-.094-.691-.14-1.138-.14h-6.672v7.854h1.484zm5.187-4.663h-5.188v-2.03h5.188c.655 0 .982.24.982.724v.58c0 .484-.327.726-.982.726zm10.856 4.663c.558 0 1.023-.048 1.395-.145.372-.096.67-.238.892-.424.223-.186.382-.418.474-.697.093-.279.14-.604.14-.976v-3.292c0-.386-.047-.725-.14-1.015-.092-.29-.25-.532-.474-.725-.223-.193-.52-.338-.892-.435-.372-.097-.837-.145-1.395-.145h-7.196v7.854h7.196zm0-1.16h-5.712v-5.534h5.712c.275 0 .504.019.686.056.183.037.328.1.435.19.108.089.184.208.23.357.044.148.066.334.066.557v3.28c0 .209-.022.384-.067.525-.045.141-.12.253-.229.335-.107.082-.252.141-.435.178-.182.037-.41.056-.686.056zm5.78 1.16v-1.45h-1.752v1.45h1.751z"/>
        <path id="vxy8ybcj8b" d="M8.508 26.755c.025-.149.062-.298.112-.448l.15-.447 1.305-3.023h14.927l1.343 3.06c.05.124.1.255.15.392.05.137.1.292.149.466h7.612c-.05-.199-.105-.385-.168-.56-.062-.174-.143-.36-.242-.56l-9.105-20c-.722-1.568-1.673-2.737-2.855-3.509C20.704 1.356 19.23.97 17.464.97c-1.816 0-3.309.385-4.478 1.156-1.17.772-2.115 1.94-2.836 3.508L1.12 25.636c-.1.199-.18.385-.243.56-.062.174-.118.36-.168.56h7.8zm14.031-9.478h-10l3.843-9.03c.124-.3.286-.504.485-.616.199-.112.41-.168.634-.168.25 0 .473.062.672.186.2.125.36.324.485.597l3.881 9.03zm21.196 9.478V15.598l12.09 10.112c.498.398.87.747 1.12 1.045H67.02c-.15-.174-.305-.336-.466-.485-.162-.15-.33-.298-.504-.448L51.16 13.77c-.149-.124-.223-.261-.223-.41 0-.15.074-.286.224-.41L65.042 2.2c.125-.1.25-.205.373-.317.125-.112.224-.23.299-.355h-9.441c-.299.374-.647.722-1.045 1.045l-11.493 9.292V1.529h-6.83v25.226h6.83zm32.316 0c.024-.149.062-.298.112-.448l.149-.447 1.306-3.023h14.926l1.344 3.06c.05.124.1.255.15.392.049.137.099.292.148.466h7.613c-.05-.199-.106-.385-.168-.56-.062-.174-.143-.36-.243-.56l-9.105-20c-.721-1.568-1.673-2.737-2.854-3.509C88.247 1.356 86.773.97 85.007.97c-1.817 0-3.31.385-4.478 1.156-1.17.772-2.115 1.94-2.836 3.508l-9.031 20.002c-.1.199-.18.385-.243.56-.062.174-.118.36-.167.56h7.799zm14.03-9.478h-10l3.843-9.03c.125-.3.286-.504.485-.616.2-.112.41-.168.635-.168.249 0 .473.062.672.186.199.125.36.324.485.597l3.88 9.03z"/>
        <path id="3xltkldhxc" d="M136.803 26.755V8.21h11.045v-6.68h-28.92v6.68h11.083v18.546h6.792zm42.287 0V20.3h-19.18c-.398 0-.597-.224-.597-.672v-3.06h19.665v-4.851h-19.665V8.843c0-.422.199-.634.597-.634h19.18v-6.68h-22.95c-2.388 0-3.582 1.132-3.582 3.396v18.323c0 2.338 1.182 3.507 3.545 3.507h22.987zm31.317 0v-6.642h-13.21c-1.194 0-2.202-.174-3.023-.522-.82-.349-1.505-.821-2.052-1.419-.498-.522-.883-1.125-1.157-1.81-.274-.683-.41-1.411-.41-2.182 0-.846.167-1.642.503-2.389.336-.746.79-1.393 1.362-1.94.548-.498 1.194-.896 1.94-1.194.747-.299 1.692-.448 2.837-.448h13.21v-6.68h-13.21c-2.04 0-3.825.293-5.355.877-1.53.585-2.855 1.4-3.974 2.445-1.269 1.169-2.264 2.55-2.986 4.142-.721 1.592-1.082 3.308-1.082 5.15 0 1.666.286 3.221.859 4.664.572 1.443 1.368 2.724 2.388 3.843 1.169 1.27 2.587 2.27 4.254 3.004 1.667.734 3.632 1.101 5.896 1.101h13.21zm12.098 0v-9.74h15.039v9.74h6.791V1.53h-6.791v9.143h-15.039V1.529h-6.791v25.226h6.791z"/>
    </defs>
    <g fill="none" fill-rule="evenodd">
        <g fill-rule="nonzero">
            <g>
                <g>
                    <path fill="#1C75BC" d="M279.017 3.622c-2.537 2.087-4.494 3.605-5.873 4.554-3.01 2.071-5.853 3.599-6.64 4.001-3.92 1.99-7.928 3.892-12.015 5.66-.657.288.267-.11.323-.132l-.701.287-1.392.575c-1.114.442-2.228.885-3.341 1.305-2.05.785-4.11 1.547-6.18 2.21l-3.118 1.106c-.123 0-1.448.42-1.448.465l.49-.155-1.214.376c-2.108.64-4.224 1.249-6.347 1.824-2.127.564-4.277 1.105-6.426 1.592-.478.173-.975.288-1.48.342 0 0 1.625-.353.233-.055l-.746.155c-1.114.232-2.16.442-3.252.652-2.227.431-4.52.83-6.792 1.172-1.036.166-2.072.31-3.119.453l-1.87.244c1.169-.155-.412 0-.802.088-4.677.509-9.365.822-14.065.94h-3.173-2.807c-2.271 0-4.543-.074-6.815-.221-4.61-.222-9.213-.59-13.808-1.106-17.817-2.023-35.712-6.28-53.251-10.989C95.57 14.167 77.83 8.85 59.702 5.125 41.005 1.276 21.84-.936 2.765.38 1.845.443 1.483.515.564.596.188.823 0 1.634 0 3.03c0 1.396.224 2.287.67 2.673 1.462-.074 2.368-.127 3.832-.159h1.86 4.432c2.383.052 4.758.159 7.127.32C27.12 6.493 36.27 7.7 45.315 9.48c18.44 3.549 36.425 8.844 54.565 13.797 18.14 4.952 36.447 9.375 55.133 11.774 19.294 2.586 38.866 2.333 58.085-.752 18.994-3.174 37.456-8.933 54.865-17.114 2.038-.962 2.05-.732 8.223-4.565 1.595-.99 2.976-2.774 3.3-3.271.324-.497 1.552-2.15 1.532-3.227-.011-.538-.332-1.315-.963-2.33-.204-.328-.635-.428-.963-.224-.026.016-.051.034-.075.054z" transform="translate(-535 -333) translate(535 333) translate(13.388 54.111)"/>
                    <path fill="#00AEEF" d="M.587 12.046c24.45-1.415 48.082 3.254 71.638 9.765 13.187 3.648 26.228 7.81 39.348 11.626 6.61 1.941 13.23 3.805 19.896 5.579 6.884 1.899 13.869 3.407 20.922 4.518 15.728 2.165 31.344 4.876 47.206 2.232.657-.112 1.716-.446 1.783-1.272.067-.826-.847-1.116-1.471-.993-14.179 2.41-28.167.446-42.234-1.585-3.668-.535-7.312-1.026-10.935-1.818s-6.967-1.573-10.433-2.444c-6.688-1.662-13.376-3.492-19.964-5.422-25.982-7.587-51.72-16.524-78.594-20.597C25.262 9.645 13.161 9.034.556 9.808c-.38.095-.565.463-.558 1.106.01.644.206 1.02.589 1.132z" transform="translate(-535 -333) translate(535 333) translate(13.388 54.111)"/>
                </g>
                <g>
                    <g>
                        <path fill="#7DA3D5" d="M18.04 16.7c2.982 8.908 6.806 17.51 11.42 25.691 1.278 2.172 6.49.128 7.385-1.558 7.456-14.084 16.682-27.157 27.454-38.9 1.175-1.278-1.01-1.7-1.866-1.687-1.8.006-3.535.68-4.867 1.89-11.025 12.024-20.47 25.405-28.105 39.821l7.384-1.546c-4.6-8.185-8.416-16.787-11.396-25.69-.715-2.147-8.074 0-7.397 1.98h-.012z" transform="translate(-535 -333) translate(535 333) translate(.152 .123) translate(0 .7)"/>
                        <path fill="#231F20" d="M.078 16.764C3.73 25.84 8.153 34.584 13.3 42.902c.345.55 1.495.729 2.031.767.996.052 1.991-.119 2.913-.498 1.278-.55 2.81-1.75 1.904-3.207-4.93-7.997-9.162-16.405-12.648-25.129-.626-1.558-2.913-1.405-4.241-1.047-.997.268-3.833 1.494-3.156 3.04l-.025-.064z" transform="translate(-535 -333) translate(535 333) translate(.152 .123) translate(0 .7)"/>
                    </g>
                    <g transform="translate(-535 -333) translate(535 333) translate(.152 .123)">
                        <use fill="#000" xlink:href="#2gnje5ctla"/>
                        <use fill="#1C75BC" xlink:href="#2gnje5ctla"/>
                    </g>
                    <g>
                        <g transform="translate(-535 -333) translate(535 333) translate(.152 .123) translate(50.054 18.434)">
                            <use fill="#000" xlink:href="#vxy8ybcj8b"/>
                            <use fill="#231F20" xlink:href="#vxy8ybcj8b"/>
                        </g>
                        <g transform="translate(-535 -333) translate(535 333) translate(.152 .123) translate(50.054 18.434)">
                            <use fill="#000" xlink:href="#3xltkldhxc"/>
                            <use fill="#231F20" xlink:href="#3xltkldhxc"/>
                        </g>
                    </g>
                </g>
            </g>
        </g>
    </g>
</svg>
